<?xml version="1.0" encoding="UTF-8"?><svg id="Layer_1" xmlns="http://www.w3.org/2000/svg" viewBox="0 0 512 512"><circle cx="256" cy="256" r="248.78"/><g><path d="M290.6,358.04v22.11c-7.73-.04-15.17-1.35-22.11-3.74-27.37-9.39-47.08-35.38-47.08-65.9v-109.02c0-12.7-4.94-24.64-13.92-33.61-8.98-8.98-20.91-13.92-33.61-13.92-26.21,0-47.53,21.33-47.53,47.53v82.79h-22.11v-82.79c0-38.41,31.24-69.65,69.65-69.65,18.6,0,36.1,7.24,49.25,20.4,13.15,13.14,20.4,30.63,20.4,49.25v109.02c0,18.04,10.11,33.78,24.97,41.82,6.59,3.57,14.12,5.63,22.11,5.71Z" style="fill:#fff;"/><g style="opacity:.9;"><path d="M407.78,233.2v135.9h-22.11v-42.06h-79.57v-22.11h79.57v-71.73c0-12.7-4.94-24.64-13.92-33.61-8.98-8.98-20.91-13.92-33.61-13.92-26.21,0-47.53,21.33-47.53,47.53v124.84c-8-.07-15.52-2.13-22.11-5.71v-119.13c0-38.41,31.24-69.65,69.65-69.65,18.6,0,36.1,7.24,49.25,20.4,13.15,13.14,20.4,30.64,20.4,49.25Z" style="fill:#fff;"/></g><g><path d="M248.16,163.52h14.67v3.87l-5.38,3.05c-1.54,.87-3.37,1.74-5.03,2.39v.07c1.94-.22,3.92-.28,6.11-.28h4.29v3.05h-14.67v-3.48l5.66-3.13c1.57-.87,3.46-1.83,5.18-2.55l-.02-.07c-1.94,.09-4,.13-6.4,.13h-4.42v-3.05Z" style="fill:#fff;"/><path d="M262.83,181.87h-14.67v-3.33h14.67v3.33Z" style="fill:#fff;"/><path d="M248.57,195.51c-.3-.61-.63-1.98-.63-3.76,0-5.07,3.16-7.68,7.33-7.68,5,0,7.79,3.57,7.79,8.01,0,1.72-.35,3.02-.65,3.61l-2.63-.67c.28-.67,.54-1.61,.54-2.79,0-2.63-1.59-4.68-4.85-4.68-2.94,0-4.79,1.74-4.79,4.7,0,1,.22,2.11,.48,2.76l-2.59,.5Z" style="fill:#fff;"/><path d="M262.83,201.02h-5.64v5.46h5.64v3.31h-14.67v-3.31h6.14v-5.46h-6.14v-3.33h14.67v3.33Z" style="fill:#fff;"/><path d="M255.64,226.11c-4.81,0-7.72-2.92-7.72-7.2s3.29-6.9,7.46-6.9c4.4,0,7.68,2.81,7.68,7.14s-3.37,6.96-7.42,6.96Zm-.2-10.6c-2.87,0-4.9,1.35-4.9,3.57s2.13,3.53,4.98,3.53c2.63,0,4.9-1.26,4.9-3.55s-2.13-3.55-4.98-3.55Z" style="fill:#fff;"/><path d="M262.83,228.29v3.33h-11.88v5.83h-2.79v-9.16h14.67Z" style="fill:#fff;"/><path d="M251.92,242.95l-3.76-1.04v-3.44l14.67,4.48v4.35l-14.67,4.55v-3.57l3.76-1.13v-4.2Zm2.48,3.72l3.11-.91c.87-.26,1.96-.52,2.83-.74v-.04c-.87-.22-1.98-.44-2.83-.67l-3.11-.87v3.24Z" style="fill:#fff;"/><path d="M251.58,253.92c-.46,.89-.91,2.26-.91,3.68,0,1.52,.63,2.33,1.59,2.33s1.44-.7,2.07-2.46c.85-2.44,2.2-4.03,4.33-4.03,2.5,0,4.42,2.09,4.42,5.55,0,1.65-.35,2.87-.74,3.74l-2.68-.74c.28-.59,.7-1.63,.7-3.07s-.65-2.13-1.41-2.13c-.94,0-1.35,.83-2.07,2.72-.96,2.59-2.31,3.81-4.37,3.81-2.46,0-4.55-1.89-4.55-5.92,0-1.68,.44-3.33,.89-4.16l2.74,.67Z" style="fill:#fff;"/><path d="M251.92,273.37l-3.76-1.04v-3.44l14.67,4.48v4.35l-14.67,4.55v-3.57l3.76-1.13v-4.2Zm2.48,3.72l3.11-.91c.87-.26,1.96-.52,2.83-.74v-.04c-.87-.22-1.98-.44-2.83-.67l-3.11-.87v3.24Z" style="fill:#fff;"/><path d="M248.83,295.94c-.35-1.02-.83-2.96-.83-4.9,0-2.68,.67-4.61,1.98-5.96,1.26-1.35,3.18-2.09,5.33-2.07,4.87,.02,7.66,3.57,7.66,8.38,0,1.89-.37,3.35-.72,4.07l-2.65-.7c.35-.8,.63-1.81,.63-3.42,0-2.76-1.57-4.85-4.74-4.85s-4.81,1.89-4.81,4.61c0,.76,.09,1.37,.22,1.63h3.07v-2.26h2.59v5.46h-7.72Z" style="fill:#fff;"/><path d="M262.63,298.53c.17,.87,.3,2.63,.3,4.29,0,2.02-.2,3.26-.83,4.33-.54,1.02-1.54,1.76-2.87,1.76s-2.52-.76-3.13-2.42h-.04c-.46,1.68-1.72,2.92-3.61,2.92-1.33,0-2.37-.61-3.11-1.52-.85-1.07-1.33-2.85-1.33-5.77,0-1.63,.11-2.85,.22-3.59h14.4Zm-12.12,3.29c-.04,.33-.04,.72-.04,1.28,0,1.5,.57,2.83,2.11,2.83s2.07-1.33,2.07-2.98v-1.13h-4.13Zm6.51,0v1.09c0,1.74,.72,2.68,1.81,2.68s1.7-.85,1.7-2.35c0-.72-.04-1.13-.09-1.41h-3.42Z" style="fill:#fff;"/><path d="M255.64,325.1c-4.81,0-7.72-2.92-7.72-7.2s3.29-6.9,7.46-6.9c4.4,0,7.68,2.81,7.68,7.14s-3.37,6.96-7.42,6.96Zm-.2-10.6c-2.87,0-4.9,1.35-4.9,3.57s2.13,3.53,4.98,3.53c2.63,0,4.9-1.26,4.9-3.55s-2.13-3.55-4.98-3.55Z" style="fill:#fff;"/></g></g></svg>